<?xml version="1.0" encoding="UTF-8" standalone="no"?>
<!-- Created with Inkscape (http://www.inkscape.org/) -->

<svg
   width="54.999996mm"
   height="54.999996mm"
   viewBox="0 0 207.874 207.874"
   version="1.1"
   id="svg5"
   inkscape:export-filename="Rastergrafik.png"
   inkscape:export-xdpi="96"
   inkscape:export-ydpi="96"
   inkscape:version="1.2.2 (b0a8486541, 2022-12-01)"
   sodipodi:docname="Zeichnung.svg"
   xmlns:inkscape="http://www.inkscape.org/namespaces/inkscape"
   xmlns:sodipodi="http://sodipodi.sourceforge.net/DTD/sodipodi-0.dtd"
   xmlns="http://www.w3.org/2000/svg"
   xmlns:svg="http://www.w3.org/2000/svg">
  <sodipodi:namedview
     id="namedview7"
     pagecolor="#505050"
     bordercolor="#eeeeee"
     borderopacity="1"
     inkscape:showpageshadow="0"
     inkscape:pageopacity="0"
     inkscape:pagecheckerboard="0"
     inkscape:deskcolor="#505050"
     inkscape:document-units="mm"
     showgrid="true"
     inkscape:zoom="11.313708"
     inkscape:cx="107.17087"
     inkscape:cy="62.181203"
     inkscape:window-width="3840"
     inkscape:window-height="2097"
     inkscape:window-x="0"
     inkscape:window-y="0"
     inkscape:window-maximized="1"
     inkscape:current-layer="text113">
    <inkscape:grid
       type="xygrid"
       id="grid714" />
  </sodipodi:namedview>
  <defs
     id="defs2" />
  <g
     inkscape:label="Ebene 1"
     inkscape:groupmode="layer"
     id="layer1">
    <g
       id="g834"
       transform="matrix(0.77561486,0,0,0.74027969,25.140014,-0.32311264)">
      <g
         id="g12615"
         transform="matrix(0.62880283,0,0,0.62880283,27.193017,60.959513)">
        <g
           aria-label="A "
           transform="matrix(1.310292,-1.15865,1.1619513,1.3133791,-65.204088,-45.028947)"
           id="text113"
           style="font-size:133.333px">
          <path
             id="path824"
             d="m 5.5083873,9.1109817 -10.8004655,-7.12e-4 -37.2013758,95.6018003 12.133137,3.3e-4 11.336633,-29.467041 37.732079,6.45e-4 c 5.310149,16.14297 18.81766,45.630196 18.990968,59.860096 -0.335255,7.91925 -12.08244,17.30612 -14.776089,20.62117 -7.695805,9.47115 -12.871448,18.82069 -15.525875,28.04852 -2.5697407,9.2892 -2.307883,18.07864 0.7821701,26.36344 3.0900529,8.2848 9.2504879,15.76932 18.4813199,22.45778 4.996501,3.62035 9.513917,6.42461 13.551739,8.40986 4.12251,2.04662 8.390299,3.66228 12.80845,4.84831 l 8.039811,-9.89356 c -4.212013,-1.43971 -8.367527,-3.11171 -12.474061,-5.01241 -4.106533,-1.90069 -8.153766,-4.29206 -12.134029,-7.17607 -10.416441,-7.54752 -15.602175,-16.47768 -15.56187,-26.79354 0.193699,-10.33906 4.859544,-21.13095 13.998312,-32.37794 9.207481,-11.33155 19.252826,-18.22954 30.133001,-20.69107 10.880175,-2.46152 21.188665,-0.16627 30.927615,6.89036 4.064953,2.94537 7.376923,6.15297 9.939833,9.62222 2.64759,3.5306 4.85336,6.94438 6.61733,10.23778 l 12.40745,-6.32636 C 120.68673,155.6285 113.58091,148.07939 104.2182,140.87408 85.423497,126.41014 65.309301,130.07303 55.558947,129.32265 49.375432,128.78939 44.764088,110.58506 42.574793,104.727 c -0.003,-0.008 -0.0059,-0.0118 -0.0089,-0.0198 C 30.235889,72.866093 17.860918,40.969649 5.5083873,9.1109817 Z M -0.08960689,21.511929 c 0.35555429,1.066662 0.79779428,2.624035 1.33112579,4.668472 0.6222199,1.955549 1.2441506,3.865285 1.8663707,5.731945 0.62222,1.866661 1.0678634,3.156315 1.3345291,3.867424 L 17.002342,70.672853 -16.853782,70.58101 -4.2257617,35.779621 c 0.5333314,-1.511105 1.2029625,-3.557106 2.0029597,-6.134875 0.7999972,-2.666657 1.5109751,-5.377272 2.13319511,-8.132817 z"
             sodipodi:nodetypes="cccccccscsscccsscssscccscsccccscccccc"
             style="fill:#ffffff;stroke:none" />
        </g>
        <g
           aria-label="A "
           transform="matrix(1.2676662,-1.205124,1.2083122,1.2708699,-143.31996,-156.28713)"
           id="text113-3"
           style="font-size:160px;fill:#ffffff;stroke:none">
          <path
             id="path818"
             d="m -45.332988,179.62613 -12.285782,0.16945 -44.64083,114.71737 14.562083,3.6e-4 14.276229,-40.89038 45.280204,-0.003 13.761588,35.36196 14.19941993,5.53075 L -45.107684,180.66746 Z m -5.368629,9.51763 c 0.426667,1.28 0.960357,3.14621 1.600357,5.59954 0.746666,2.34667 1.493074,4.63852 2.23974,6.87852 0.746666,2.24 1.278973,3.78713 1.598973,4.64046 l 15.252398,42.56501 -42.46401,-0.84709 16.810956,-41.7182 c 0.639999,-1.81333 1.440669,-4.26741 2.400668,-7.36074 0.959999,-3.19999 1.814252,-6.45083 2.560918,-9.7575 z"
             sodipodi:nodetypes="ccccccccccccscccccc"
             style="fill:#ffffff;stroke:none" />
        </g>
        <g
           aria-label="C"
           transform="matrix(0.97566443,-0.09384126,0.04403179,1.0207075,43.907407,106.47683)"
           id="text330"
           style="font-size:160px;fill:#e3dbde" />
        <ellipse
           style="fill:#ffffff;stroke:none;stroke-width:2.31252;stroke-opacity:1"
           id="path943"
           cx="183.22563"
           cy="250.89842"
           rx="26.758745"
           ry="26.582787"
           transform="matrix(0.67718256,-0.73581505,0.70348498,0.71071012,0,0)" />
        <ellipse
           style="fill:#ffffff;stroke:none;stroke-width:2.31127;stroke-opacity:1"
           id="path943-27"
           cx="191.92509"
           cy="209.16187"
           rx="26.106756"
           ry="27.217197"
           transform="matrix(0.9995799,0.02898319,-0.02640442,0.99965134,0,0)" />
        <ellipse
           style="fill:#ffffff;fill-opacity:1;stroke:none;stroke-width:2.31252;stroke-opacity:1"
           id="path943-2"
           cx="65.934631"
           cy="361.80954"
           rx="26.758745"
           ry="26.582787"
           transform="matrix(0.67718256,-0.73581505,0.70348498,0.71071012,0,0)" />
        <ellipse
           style="fill:#ffffff;fill-opacity:1;stroke:none;stroke-width:2.31127;stroke-opacity:1"
           id="path943-2-1"
           cx="90.265427"
           cy="310.23267"
           rx="26.106756"
           ry="27.217197"
           transform="matrix(0.9995799,0.02898319,-0.02640442,0.99965134,0,0)" />
        <ellipse
           style="fill:#ffffff;stroke:none;stroke-width:2.31127;stroke-opacity:1"
           id="path943-2-9"
           cx="-40.359722"
           cy="-13.128011"
           rx="26.106756"
           ry="27.217197"
           transform="matrix(0.9995799,0.02898319,-0.02640442,0.99965134,0,0)" />
      </g>
      <g
         aria-label="A"
         transform="scale(0.97695567,1.0235879)"
         id="text12103-3"
         style="font-size:123.173px;stroke-width:6.39446;stroke-linecap:round;stroke-linejoin:round" />
    </g>
  </g>
</svg>
